Coordinates
version=1
nRows=5
nColumns=69
inDegrees=yes

Units are S.I. units (second, meters, Newtons, ...)
If the header above contains a line with 'inDegrees', this indicates whether rotational values are in degrees (yes) or radians (no).

endheader
time	pelvis_tilt	pelvis_list	pelvis_rotation	pelvis_tx	pelvis_ty	pelvis_tz	hip_flexion_r	hip_adduction_r	hip_rotation_r	knee_angle_r	knee_angle_r_beta	ankle_angle_r	subtalar_angle_r	mtp_angle_r	hip_flexion_l	hip_adduction_l	hip_rotation_l	knee_angle_l	knee_angle_l_beta	ankle_angle_l	subtalar_angle_l	mtp_angle_l	L5_S1_Flex_Ext	L5_S1_Lat_Bending	L5_S1_axial_rotation	L4_L5_Flex_Ext	L4_L5_Lat_Bending	L4_L5_axial_rotation	L3_L4_Flex_Ext	L3_L4_Lat_Bending	L3_L4_axial_rotation	L2_L3_Flex_Ext	L2_L3_Lat_Bending	L2_L3_axial_rotation	L1_L2_Flex_Ext	L1_L2_Lat_Bending	L1_L2_axial_rotation	L1_T12_Flex_Ext	L1_T12_Lat_Bending	L1_T12_axial_rotation	Abs_r3	Abs_r2	Abs_r1	Abs_t1	Abs_t2	neck_flexion	neck_bending	neck_rotation	sh_tx_r	sh_ty_r	sh_tz_r	sh_plane_elev_r	sh_elev_r	sh_axial_rot_r	elbow_flex_r	pro_sup_r	wrist_flex_r	wrist_dev_r	sh_tx_l	sh_ty_l	sh_tz_l	sh_plane_elev_l	sh_elev_l	sh_axial_rot_l	elbow_flex_l	pro_sup_l	wrist_flex_l	wrist_dev_l
      0.01666670	     -1.03176270	      4.20500877	    -90.05617661	      0.01671590	      0.91088391	     -1.37992725	      7.01110301	      8.42906582	     -8.06696504	     23.92167736	      0.41751203	     13.00560695	    -19.21693873	      0.00000000	     35.94939224	      7.16987742	      5.54761353	     17.93899114	      0.31309446	     -6.47555136	     -6.16619873	      0.00000000	     -0.06893942	      0.47388196	      1.37248288	     -0.12802741	      0.63026300	      1.45826306	     -0.11326058	      1.15219659	      1.45826306	     -0.07879087	      1.15219659	      1.20092252	     -0.06401715	      0.96634009	      1.11514234	     -0.03939199	      0.73404315	      1.02936216	     -0.49242742	      5.36064747	      7.63333801	      0.00000000	      0.00000000	      0.00000000	      0.00000000	      0.00000002	     -0.02714894	      0.00810935	     -0.00584054	    -28.82048545	     17.03068013	      8.92106747	     41.60210664	     89.99559364	      0.00000000	      0.00000000	     -0.02647133	     -0.00218831	     -0.00501763	      1.27284560	     11.53285371	      4.13181997	     20.80321303	     89.99559364	      0.00000000	      0.00000000
      0.03333330	     -2.18737817	      3.55309608	    -89.52292120	      0.01230649	      0.91278841	     -1.37038479	      5.18727436	      9.96916451	     -9.83039782	     23.24147266	      0.40564022	     13.43216988	    -19.02278257	      0.00000000	     36.05528306	      6.51043501	      7.76821784	     19.09903413	      0.33334103	    -10.97108116	     -5.61208819	      0.00000000	     -0.06210538	      0.63438639	      1.34507369	     -0.11533590	      0.84373390	      1.42914080	     -0.10203293	      1.54244706	      1.42914080	     -0.07098024	      1.54244706	      1.17693948	     -0.05767105	      1.29364072	      1.09287237	     -0.03548701	      0.98266451	      1.00880527	     -0.44361251	      7.17630570	      7.48089635	      0.00000000	      0.00000000	      0.00000000	      0.00000000	      0.00000001	     -0.02387496	      0.01152068	     -0.00575971	    -35.53735979	     17.49288258	      8.57814460	     44.31740243	     89.99559364	      0.00000000	      0.00000000	     -0.01924147	     -0.00266900	     -0.00507886	      1.76516740	     12.12949994	      2.37061020	     20.55507419	     89.99559364	      0.00000000	      0.00000000
      0.05000000	     -1.87016548	      2.78246799	    -89.64230437	      0.00726671	      0.91464001	     -1.36044828	      3.80472344	      9.97220039	     -9.49860040	     23.60600231	      0.41200246	     15.33455069	    -18.80435034	      0.00000000	     35.45620555	      6.54418450	      7.53874082	     20.87472798	      0.36433273	    -12.85767888	     -5.20309621	      0.00000000	     -0.05560163	      0.55565548	      1.13224188	     -0.10325778	      0.73902178	      1.20300700	     -0.09134791	      1.35102072	      1.20300700	     -0.06354710	      1.35102072	      0.99071164	     -0.05163167	      1.13309264	      0.91994653	     -0.03177077	      0.86071033	      0.84918141	     -0.39715687	      6.28568587	      6.29718966	      0.00000000	      0.00000000	      0.00000000	      0.00000000	      0.00000001	     -0.02447807	      0.01420653	     -0.00574257	    -35.77701344	     16.97221485	      8.10730624	     45.39204701	     89.99559364	      0.00000000	      0.00000000	     -0.01689380	     -0.00341916	     -0.00508033	      1.72002688	     13.15722485	      2.40155747	     20.22824458	     89.99559364	      0.00000000	      0.00000000
      0.06666670	     -2.14971396	      2.30818930	    -89.55403140	      0.00434488	      0.91511494	     -1.35000724	      2.28159820	     10.54020322	     -9.80260645	     23.05344735	      0.40235856	     14.41352572	    -18.55415611	      0.00000000	     35.13838188	      6.14722735	      6.59201277	     22.82398016	      0.39835360	    -13.86071493	     -5.04787491	      0.00000000	     -0.05885445	      0.52508554	      0.81359592	     -0.10929860	      0.69836377	      0.86444567	     -0.09669198	      1.27669299	      0.86444567	     -0.06726475	      1.27669299	      0.71189643	     -0.05465224	      1.07075444	      0.66104669	     -0.03362943	      0.81335751	      0.61019694	     -0.42039146	      5.93987268	      4.52497644	      0.00000000	      0.00000000	      0.00000000	      0.00000000	      0.00000001	     -0.02333188	      0.01555384	     -0.00566521	    -35.96560204	     16.67751325	      7.09970919	     48.33004791	     89.99559364	      0.00000000	      0.00000000	     -0.01556365	     -0.00288336	     -0.00511877	      1.48248970	     13.87344107	      2.26275432	     19.28785520	     89.99559364	      0.00000000	      0.00000000
      0.08333330	     -2.78208993	      1.92371058	    -89.35517531	      0.00187679	      0.91615863	     -1.33889483	      1.03542527	     11.25032805	    -10.18252567	     22.77838567	      0.39755783	     14.16111158	    -18.52586258	      0.00000000	     35.15730413	      5.44311075	      5.22743795	     25.23197347	      0.44038101	    -13.81277150	     -4.07266659	      0.00000000	     -0.05940253	      0.51433347	      0.66753514	     -0.11031644	      0.68406352	      0.70925609	     -0.09759241	      1.25055040	      0.70925609	     -0.06789115	      1.25055040	      0.58409325	     -0.05516119	      1.04882881	      0.54237230	     -0.03394260	      0.79670255	      0.50065135	     -0.42430632	      5.81824308	      3.71263019	      0.00000000	      0.00000000	      0.00000000	      0.00000000	      0.00000001	     -0.02255676	      0.01679795	     -0.00568981	    -35.52802516	     16.93778860	      7.00314079	     50.51948639	     89.99559364	      0.00000000	      0.00000000	     -0.01198237	     -0.00368973	     -0.00514899	      1.42725414	     14.42419018	      2.05689944	     19.30632870	     89.99559364	      0.00000000	      0.00000000
